# xmcd CD database file
#
# Track frame offsets:
#	150
#	21735
#	40677
#	61965
#	73932
#	95602
#	114265
#	132250
#	146137
#	167255
#	183417
#
# Disc length: 2724 seconds
#
# Revision: 3
# Processed by: cddbd v1.5.2PL0 Copyright (c) Steve Scherf et al.
# Submitted via: CDex 1.51
#
DISCID=9c0aa20b
DTITLE=Morgan, Lorrie - Secret love
DYEAR=1998
DGENRE=Country
TTITLE0=OnceUupon A Time
TTITLE1=Here's That Rainy Day
TTITLE2=Good Morning Heartache
TTITLE3=I've Got the World on A String
TTITLE4=Secret Love
TTITLE5=My Foolish Heart
TTITLE6=Summer of '42 (The Summer Knows)
TTITLE7=They Can't Take That Away From Me
TTITLE8=I Wish You Love
TTITLE9=Fly Me to the Moon (In Other Words)
TTITLE10=An Affair to Remember (Our Love Affair)
EXTD=YEAR: 1998
EXTT0=
EXTT1=
EXTT2=
EXTT3=
EXTT4=
EXTT5=
EXTT6=
EXTT7=
EXTT8=
EXTT9=
EXTT10=
PLAYORDER=
